<svg width="167" height="167" viewBox="0 0 167 167" fill="none" xmlns="http://www.w3.org/2000/svg">
<rect width="167" height="167" rx="25" fill="#5E1CC9"/>
<rect width="167" height="167" rx="25" fill="url(#paint0_linear_105_14)" fill-opacity="0.2"/>
<g filter="url(#filter0_i_105_14)">
<mask id="mask0_105_14" style="mask-type:alpha" maskUnits="userSpaceOnUse" x="0" y="0" width="167" height="167">
<rect width="167" height="167" rx="25" fill="url(#paint1_linear_105_14)"/>
</mask>
<g mask="url(#mask0_105_14)">
<path fill-rule="evenodd" clip-rule="evenodd" d="M167 0H0V167H167V0ZM143.136 33.3883C144.344 30.5695 143.714 27.2992 141.546 25.1306C139.377 22.9621 136.107 22.3323 133.288 23.5403L59.222 55.2829C57.4519 56.0416 56.0414 57.452 55.2828 59.2221L23.5402 133.288C22.3321 136.107 22.962 139.377 25.1305 141.546C27.299 143.714 30.5694 144.344 33.3882 143.136L107.454 111.394C109.224 110.635 110.635 109.225 111.393 107.454L143.136 33.3883ZM91.3634 101.97L64.7063 75.313L44.7134 121.963L91.3634 101.97ZM75.3129 64.7064L101.97 91.3636L121.963 44.7135L75.3129 64.7064Z" fill="white"/>
</g>
</g>
<mask id="mask1_105_14" style="mask-type:alpha" maskUnits="userSpaceOnUse" x="0" y="0" width="167" height="167">
<rect width="167" height="167" rx="25" fill="url(#paint2_linear_105_14)"/>
</mask>
<g mask="url(#mask1_105_14)">
<rect x="-145.5" y="72.6875" width="154.414" height="356.291" transform="rotate(-45 -145.5 72.6875)" fill="black" fill-opacity="0.04"/>
</g>
<defs>
<filter id="filter0_i_105_14" x="0" y="0" width="167" height="169" filterUnits="userSpaceOnUse" color-interpolation-filters="sRGB">
<feFlood flood-opacity="0" result="BackgroundImageFix"/>
<feBlend mode="normal" in="SourceGraphic" in2="BackgroundImageFix" result="shape"/>
<feColorMatrix in="SourceAlpha" type="matrix" values="0 0 0 0 0 0 0 0 0 0 0 0 0 0 0 0 0 0 127 0" result="hardAlpha"/>
<feOffset dy="2"/>
<feGaussianBlur stdDeviation="2"/>
<feComposite in2="hardAlpha" operator="arithmetic" k2="-1" k3="1"/>
<feColorMatrix type="matrix" values="0 0 0 0 0 0 0 0 0 0 0 0 0 0 0 0 0 0 0.2 0"/>
<feBlend mode="normal" in2="shape" result="effect1_innerShadow_105_14"/>
</filter>
<linearGradient id="paint0_linear_105_14" x1="83.5" y1="0" x2="83.5" y2="167" gradientUnits="userSpaceOnUse">
<stop stop-color="white"/>
<stop offset="1" stop-color="white" stop-opacity="0"/>
</linearGradient>
<linearGradient id="paint1_linear_105_14" x1="83.5" y1="0" x2="83.5" y2="167" gradientUnits="userSpaceOnUse">
<stop stop-color="white"/>
<stop offset="1" stop-color="white" stop-opacity="0.87"/>
</linearGradient>
<linearGradient id="paint2_linear_105_14" x1="83.5" y1="0" x2="83.5" y2="167" gradientUnits="userSpaceOnUse">
<stop stop-color="white"/>
<stop offset="1" stop-color="white" stop-opacity="0.87"/>
</linearGradient>
</defs>
</svg>
