<svg width="599" height="103" viewBox="0 0 599 103" fill="none" xmlns="http://www.w3.org/2000/svg">
<path fill-rule="evenodd" clip-rule="evenodd" d="M59.5766 97.533L76.5552 86.9888L81.4551 83.9458L76.5552 80.9029L60.1125 70.6916L55.2127 67.6487L60.1125 64.6057L76.5553 54.3944L81.4551 51.3515L76.5553 48.3085L7.09293 5.17L0.000616413 0.765428L0 0.765045L0.000616413 0H0.47512H8.56768H97.7716H102.942V5.17V97.533V102.703H97.7716H61.0513H51.2516L59.5766 97.533ZM84.1826 55.7435L65.0124 67.6487L84.1826 79.5539L91.2547 83.9458L84.1826 88.3378L69.3762 97.533H97.7716V5.17H16.8925L84.1826 46.9595L91.2547 51.3515L84.1826 55.7435ZM42.8721 75.3126L51.8911 80.9043L56.7969 83.9458L51.8911 86.9873L26.5421 102.703H8.56763H0.475123H0.000616413L0 101.938L0.000616413 101.938L7.09287 97.533L42.8721 75.3126ZM5.17 83.3591L0 86.5645V80.4814V54.8159V48.7329L5.17 51.9382L25.6042 64.6072L30.51 67.6487L25.6042 70.6902L5.17 83.3591ZM42.8715 59.9847L0 33.3594V22.2215V16.1385L5.17 19.3438L51.8911 48.31L56.7969 51.3515L51.891 54.3929L42.8715 59.9847Z" fill="black"/>
<path d="M198.537 2.8821H265.709V100.415H198.537V2.8821Z" stroke="black" stroke-width="5.17021"/>
<path d="M278.629 2.86459H314.8M350.971 2.86459H314.8M314.8 2.86459V103" stroke="black" stroke-width="5.17021"/>
<path d="M433.647 2.86459H361.305V54.2161M433.647 100.4H361.305V54.2161M361.305 54.2161H414.27" stroke="black" stroke-width="5.17021"/>
<path fill-rule="evenodd" clip-rule="evenodd" d="M485.512 0.296997H443.981V9.2752V61.9188V97.8298V103H449.152H509.999H516.323L512.682 97.8298L487.349 61.865C503.51 60.9151 516.323 47.5078 516.323 31.1079C516.323 14.0915 502.529 0.296997 485.512 0.296997ZM449.152 61.9188H481.063L506.357 97.8298H449.152V61.9188Z" fill="black"/>
<path fill-rule="evenodd" clip-rule="evenodd" d="M591.308 81.1581L592.218 83.7432L597.179 97.8298L599 103H593.519H562.829H532.14H526.658L528.479 97.8298L533.44 83.7432L534.351 81.1581L560.088 8.07901L562.829 0.296997L565.57 8.07901L591.308 81.1581ZM585.826 81.1581H539.832L562.829 15.861L585.826 81.1581Z" fill="black"/>
<path fill-rule="evenodd" clip-rule="evenodd" d="M118.446 97.8298H175.652L141.299 49.0592L118.446 74.2032V97.8298ZM113.276 79.8918V97.8298V103H118.446H179.294H185.618L181.976 97.8298L144.862 45.1391L185.618 0.296997H113.276V9.27518V79.8918Z" fill="black"/>
</svg>
