<svg fill="none" height="361" viewBox="0 0 1046 361" width="1046" xmlns="http://www.w3.org/2000/svg"><g fill="#d62a86"><path clip-rule="evenodd" d="m176.55 219.462 22.59 14.038-49.082 30.5h-43.058l-.001-1.244zm97.45-122.462v167h-83.856l48.999-30.5-42.573-26.5 42.573-26.5-132.144-82.256.001-1.244zm-167.001 79.242 49.496 30.758-49.496 30.758zm0-53 92.141 57.258-22.591 14.038-69.55-43.294z" fill-rule="evenodd"/><path d="m306.816 196.508 52.733-52.746h31.02l-54.506 52.524 58.937 64.714h-31.463zm-11.816-91.393 23.486-8.115v164h-23.486z"/><path d="m447.611 264c-8.849 0-16.996-1.52-24.444-4.56-7.447-3.039-13.825-7.303-19.134-12.789s-9.475-12.011-12.498-19.573c-3.023-7.563-4.535-15.866-4.535-24.912 0-9.045 1.512-17.312 4.535-24.8s7.189-13.938 12.498-19.351c5.309-5.412 11.687-9.601 19.134-12.567 7.448-2.965 15.595-4.448 24.444-4.448 8.848 0 16.959 1.483 24.332 4.448 7.374 2.966 13.715 7.155 19.024 12.567 5.309 5.413 9.475 11.863 12.498 19.351s4.535 15.755 4.535 24.8c0 9.046-1.512 17.349-4.535 24.912-3.023 7.562-7.189 14.087-12.498 19.573s-11.65 9.75-19.024 12.789c-7.373 3.04-15.484 4.56-24.332 4.56zm-36.499-61.834c0 5.783.884 11.084 2.654 15.904 1.77 4.819 4.277 8.971 7.521 12.455 3.244 3.485 7.115 6.191 11.613 8.119 4.498 1.927 9.402 2.891 14.711 2.891s10.175-.964 14.599-2.891c4.424-1.928 8.259-4.634 11.503-8.119 3.244-3.484 5.751-7.636 7.521-12.455 1.77-4.82 2.654-10.121 2.654-15.904s-.884-11.047-2.654-15.792-4.277-8.822-7.521-12.233c-3.244-3.41-7.079-6.042-11.503-7.896s-9.29-2.78-14.599-2.78-10.213.926-14.711 2.78-8.369 4.486-11.613 7.896c-3.244 3.411-5.751 7.488-7.521 12.233s-2.654 10.009-2.654 15.792z"/><path d="m565.399 264c-12.118 0-21.909-3.439-29.372-10.318s-11.194-17.345-11.194-31.399v-56.806h-16.833v-18.739l16.833-2.785v-25.926l23.497-6.027v31.953h48.118v21.524h-48.118v53.256c0 7.692 2.032 13.499 6.096 17.419s9.273 5.88 15.628 5.88c3.695 0 7.5-.703 11.416-2.108 3.917-1.405 7.427-3.587 10.53-6.546 1.271-1.037 2.754-2.467 4.448-4.291v21.001c-.601 2.021-2.083 4.218-4.448 6.589-2.956 2.367-6.835 4.179-11.638 5.437-4.803 1.257-9.791 1.886-14.963 1.886z"/><path d="m672.818 264c-9.306 0-17.726-1.52-25.259-4.56-7.534-3.039-14.033-7.303-19.498-12.789-5.466-5.486-9.675-12.011-12.63-19.573-2.954-7.563-4.431-15.866-4.431-24.912 0-8.897 1.44-17.052 4.321-24.466 2.88-7.414 6.905-13.865 12.075-19.351s11.374-9.75 18.612-12.789c7.238-3.04 15.214-4.56 23.929-4.56 8.272 0 15.732 1.372 22.379 4.115s12.334 6.784 17.06 12.122c4.727 5.338 8.346 11.9 10.857 19.684 2.511 7.785 3.767 16.719 3.767 26.802v6.673h-88.184c1.625 9.787 5.945 17.571 12.961 23.354 7.017 5.783 16.064 8.675 27.143 8.675 8.567 0 16.617-1.631 24.151-4.893 7.533-3.263 13.441-7.34 17.725-12.234v24.467c-4.727 4.152-11.152 7.562-19.276 10.231-8.125 2.669-16.692 4.004-25.702 4.004zm26.809-70.953c-1.034-9.342-4.135-16.756-9.305-22.242-5.17-5.487-12.187-8.23-21.049-8.23-8.863 0-16.249 2.743-22.157 8.23-5.909 5.486-9.675 12.9-11.3 22.242z"/><path d="m743 143.662h22.156v24.621c3.84-8.873 9.231-15.638 16.173-20.296s15.288-6.987 25.036-6.987c2.068 0 3.988.074 5.761.222 1.772.148 3.397.591 4.874 1.331v24.843c-3.84-2.071-8.936-3.106-15.287-3.106-10.635 0-19.165 3.179-25.59 9.538s-9.638 15.157-9.638 26.396v60.776h-23.485z"/><path d="m874.051 264c-7.859 0-15.199-1.483-22.02-4.448-6.821-2.966-12.752-7.155-17.794-12.567-5.042-5.413-9.008-11.9-11.9-19.462-2.891-7.563-4.337-15.941-4.337-25.134 0-9.194 1.446-17.572 4.337-25.134 2.892-7.562 6.821-14.013 11.789-19.351 4.967-5.338 10.862-9.49 17.683-12.456 6.821-2.965 14.235-4.448 22.242-4.448 10.232 0 18.87 2.224 25.913 6.673 7.044 4.448 12.641 10.231 16.793 17.349v-21.353h22.243v117.662h-22.243v-22.242c-4.152 7.265-9.749 13.234-16.793 17.905-7.043 4.671-15.681 7.006-25.913 7.006zm-31.807-61.611c0 5.783.89 11.047 2.67 15.792 1.779 4.745 4.3 8.823 7.562 12.233 3.262 3.411 7.155 6.08 11.677 8.007 4.523 1.928 9.454 2.892 14.792 2.892s10.231-.964 14.68-2.892c4.449-1.927 8.304-4.633 11.566-8.118s5.783-7.6 7.563-12.345c1.779-4.745 2.669-9.934 2.669-15.569 0-5.783-.89-11.047-2.669-15.792-1.78-4.745-4.301-8.86-7.563-12.345-3.262-3.484-7.117-6.153-11.566-8.007s-9.342-2.78-14.68-2.78-10.269.926-14.792 2.78c-4.522 1.854-8.415 4.523-11.677 8.007-3.262 3.485-5.783 7.6-7.562 12.345-1.78 4.745-2.67 10.009-2.67 15.792z"/></g></svg>