<svg width="81" height="81" viewBox="0 0 81 81" xmlns="http://www.w3.org/2000/svg">
<path id="kotera-shape" fill-rule="evenodd" clip-rule="evenodd" d="M46.9232 76.8944L60.2087 68.6246L64.0933 66.2066L60.2087 63.7886L47.3289 55.7713L43.4444 53.3533L47.3289 50.9353L60.2088 42.918L64.0933 40.5L60.2088 38.082L5.62625 4.10559L0.000485027 0.603679L0 0.603377L0.000485027 0H0.375589H6.79968H76.8944H81V4.10559V76.8944V81H76.8944H48.0966H40.3276L46.9232 76.8944ZM66.2629 43.9855L51.2134 53.3533L66.2629 62.7211L71.8624 66.2066L66.2629 69.6921L54.6923 76.8944H76.8944V4.10559H13.3952L66.2629 37.0145L71.8623 40.5L66.2629 43.9855ZM33.7341 59.3977L40.8016 63.7897L44.6909 66.2066L40.8016 68.6234L20.8848 81H6.79964H0.375595H0.000485027L0 80.3966L0.000485027 80.3963L5.6262 76.8944L33.7341 59.3977ZM4.10559 65.7205L0 68.2718V63.4381V43.2685V38.4347L4.10559 40.9861L20.1177 50.9364L24.0069 53.3533L20.1177 55.7702L4.10559 65.7205ZM33.7336 47.3088L0 26.31V17.5619V12.7282L4.10559 15.2795L40.8016 38.0831L44.6909 40.5L40.8016 42.9168L33.7336 47.3088Z"/>
</svg>
