<?xml version="1.0" encoding="UTF-8"?>
<svg width="543px" height="563px" viewBox="0 0 543 563" version="1.1" xmlns="http://www.w3.org/2000/svg" xmlns:xlink="http://www.w3.org/1999/xlink">
    <title>logo</title>
    <defs>
        <linearGradient x1="50%" y1="0%" x2="50%" y2="100%" id="linearGradient-1">
            <stop stop-color="#F7F7F7" offset="0%"></stop>
            <stop stop-color="#A1A1A1" offset="90.5048077%"></stop>
            <stop stop-color="#7D7D7D" offset="100%"></stop>
        </linearGradient>
        <path d="M100.21946,0.270746938 L442.87816,0.0612214838 C498.106625,0.0274509443 542.905518,44.7715912 542.939288,100.000056 C542.939313,100.040651 542.939313,100.081246 542.939288,100.12184 L542.719375,462.789909 C542.685915,517.97082 497.961451,562.695512 442.78054,562.729253 L100.12184,562.938779 C44.8933755,562.972549 0.0944823881,518.228409 0.0607118487,462.999944 C0.0606870261,462.959349 0.0606869227,462.918754 0.0607115385,462.87816 L0.280624959,100.210091 C0.314085371,45.0291796 45.0385488,0.3044884 100.21946,0.270746938 Z" id="path-2"></path>
        <filter x="-7.4%" y="-6.2%" width="114.7%" height="114.2%" filterUnits="objectBoundingBox" id="filter-3">
            <feMorphology radius="1" operator="dilate" in="SourceAlpha" result="shadowSpreadOuter1"></feMorphology>
            <feOffset dx="0" dy="5" in="shadowSpreadOuter1" result="shadowOffsetOuter1"></feOffset>
            <feGaussianBlur stdDeviation="11.5" in="shadowOffsetOuter1" result="shadowBlurOuter1"></feGaussianBlur>
            <feColorMatrix values="0 0 0 0 0.179574275   0 0 0 0 0.155933494   0 0 0 0 0.141093096  0 0 0 0.225360577 0" type="matrix" in="shadowBlurOuter1"></feColorMatrix>
        </filter>
        <linearGradient x1="50%" y1="0%" x2="50%" y2="100%" id="linearGradient-4">
            <stop stop-color="#F5FBF9" offset="0%"></stop>
            <stop stop-color="#D9D9D9" offset="100%"></stop>
        </linearGradient>
        <linearGradient x1="50%" y1="0%" x2="50%" y2="100%" id="linearGradient-5">
            <stop stop-color="#949494" offset="0%"></stop>
            <stop stop-color="#A0A0A0" offset="92.3841783%"></stop>
            <stop stop-color="#8B8B8B" offset="100%"></stop>
        </linearGradient>
        <linearGradient x1="50%" y1="0%" x2="50%" y2="100%" id="linearGradient-6">
            <stop stop-color="#787777" offset="0%"></stop>
            <stop stop-color="#000000" offset="100%"></stop>
        </linearGradient>
        <linearGradient x1="50%" y1="0%" x2="50%" y2="100%" id="linearGradient-7">
            <stop stop-color="#FFFFFF" offset="0%"></stop>
            <stop stop-color="#E4E4E4" offset="100%"></stop>
        </linearGradient>
        <linearGradient x1="50%" y1="9.51062165%" x2="50%" y2="104.461755%" id="linearGradient-8">
            <stop stop-color="#969696" offset="0%"></stop>
            <stop stop-color="#888888" offset="100%"></stop>
        </linearGradient>
    </defs>
    <g id="logo" stroke="none" stroke-width="1" fill="none" fill-rule="evenodd">
        <g id="Commander">
            <g id="Rectangle-Copy">
                <use fill="black" fill-opacity="1" filter="url(#filter-3)" xlink:href="#path-2"></use>
                <use fill="url(#linearGradient-1)" fill-rule="evenodd" xlink:href="#path-2"></use>
            </g>
            <path d="M442.878616,0.810851831 C470.285742,0.794194351 495.104989,11.8880464 513.076619,29.8378443 C531.048249,47.7876421 542.172263,72.5933858 542.18892,99.9995982 L542.18892,99.9995982 L541.979871,442.791448 C541.963166,470.174975 530.857514,494.964012 512.910158,512.911328 C494.962801,530.858643 470.173739,541.964238 442.790212,541.980881 L442.790212,541.980881 L100.121384,542.189148 C72.714258,542.205806 47.8950108,531.111954 29.9233807,513.162156 C11.9517505,495.212358 0.827737402,470.406614 0.811079921,443.000402 L0.811079921,443.000402 L1.02012891,100.208552 C1.03683447,72.825025 12.1424857,48.0359882 30.0898424,30.0886725 C48.0371991,12.1413567 72.8262612,1.03576195 100.209788,1.01911881 L100.209788,1.01911881 Z" id="Rectangle" stroke="#CFCFCF" stroke-width="1.5" fill="url(#linearGradient-4)"></path>
            <path d="M443.922796,32.2855493 C462.631537,32.2741785 479.573731,39.8470996 491.841584,52.1000484 C504.11064,64.3541997 511.704436,81.2892973 511.714319,100.000222 L511.714319,100.000222 L511.504627,443.796535 C511.493224,462.489167 503.912248,479.410739 491.660966,491.661993 C479.409683,503.913248 462.488094,511.494185 443.795462,511.505546 L443.795462,511.505546 L100.077204,511.714451 C81.3684631,511.725822 64.4262686,504.1529 52.1584164,491.899952 C39.8893605,479.6458 32.2955644,462.710703 32.2856807,443.999778 L32.2856807,443.999778 L32.4953729,100.203465 C32.5067765,81.5108333 40.087752,64.5892611 52.3390344,52.3380065 C64.5903169,40.086752 81.5119064,32.5058151 100.204538,32.4944541 L100.204538,32.4944541 Z" id="Rectangle-Copy-3" stroke="url(#linearGradient-6)" stroke-width="17.50071" fill="url(#linearGradient-5)"></path>
            <path d="M100.203174,41.2447867 L443.928115,41.035899 C476.512909,41.0160967 502.944157,67.4152386 502.963959,100.000033 C502.963974,100.023984 502.963974,100.047934 502.963959,100.071885 L502.76096,432.791221 C502.741097,465.347959 476.353564,491.735428 443.796826,491.755213 L100.071885,491.964101 C67.4870911,491.983903 41.0558432,465.584761 41.0360409,432.999967 C41.0360263,432.976016 41.0360264,432.952066 41.036041,432.928115 L41.2390399,100.208779 C41.2589035,67.652041 67.646436,41.2645719 100.203174,41.2447867 Z" id="Rectangle-Copy-2" fill="url(#linearGradient-7)"></path>
            <path d="M343.5,161 C323.893891,161 308,176.893891 308,196.5 L308,338.5 C308,358.106109 323.893891,374 343.5,374 C363.106109,374 379,358.106109 379,338.5 C379,318.893891 363.106109,303 343.5,303 L201.5,303 C181.893891,303 166,318.893891 166,338.5 C166,358.106109 181.893891,374 201.5,374 C221.106109,374 237,358.106109 237,338.5 L237,196.5 C237,176.893891 221.106109,161 201.5,161 C181.893891,161 166,176.893891 166,196.5 C166,216.106109 181.893891,232 201.5,232 L343.5,232 C363.106109,232 379,216.106109 379,196.5 C379,176.893891 363.106109,161 343.5,161 Z" id="Path" stroke="url(#linearGradient-8)" stroke-width="15" stroke-linecap="round" stroke-linejoin="round"></path>
        </g>
    </g>
</svg>